<?xml version="1.0" encoding="UTF-8"?><svg id="Layer_2" xmlns="http://www.w3.org/2000/svg" viewBox="0 0 120 100"><g id="Components"><g id="_28ff5e7b-0d67-441d-826e-1670e93f6c21_1"><path d="m60,0C32.3857,0,10,22.3857,10,50s22.3857,50,50,50,50-22.3857,50-50S87.6142,0,60,0ZM21.5798,61.9341c-2.17-6.7803,1.8884-14.6606,9.9324-21.3384,3.9465-11.9604,15.2053-20.5957,28.4878-20.5957,6.8975,0,13.2465,2.3335,18.3138,6.2461,10.1639.9971,17.8329,5.0742,20.0441,11.6597l-3.8371,1.21h0c-1.265-3.6973-5.3674-6.5137-11.2086-7.9912,4.1796,5.1553,6.6877,11.7212,6.6877,18.8755,0,.8599-.0447,1.709-.1157,2.5508-.2946.3306-.5999.6602-.9189.9893-5.5374,5.7104-13.8881,10.5024-23.5142,13.4927-6.3152,1.9614-12.7979,2.9985-18.7471,2.9985-3.6949,0-7.0726-.4111-10.0166-1.1562-4.1794-5.1553-6.6875-11.7212-6.6875-18.875,0-.8604.0447-1.7095.1157-2.5518-4.1991,4.707-5.9073,9.501-4.6938,13.2925.0157.0488.0408.0947.0575.1436l-3.837,1.21h0c-.0183-.0547-.0449-.1055-.0625-.1602Zm38.4202,18.0659c-6.8975,0-13.2466-2.3335-18.3141-6.2466,1.6156.1587,3.2881.2466,5.0182.2466,6.1804,0,13.0143-1.0249,19.9586-3.1821,8.7056-2.7046,16.229-6.7686,21.8253-11.4141-3.9464,11.9604-15.2053,20.5962-28.4879,20.5962Z" style="fill:#2a285e; stroke-width:0px;"/><path d="m118.7535,31.4751l-3.7899,1.1948c.0089.0278.0206.0547.0294.0825,2.4731,7.8022.4626,16.6538-5.6358,25.2417-.4949,3.0786-1.2688,6.064-2.2988,8.9272,10.5605-10.9204,15.3907-23.8008,11.7272-35.3584-.0095-.0298-.0225-.0581-.0321-.0879Z" style="fill:#6a67ed; stroke-width:0px;"/><path d="m114.9636,32.6699l3.7899-1.1948c-3.6696-11.4331-14.9013-19.1738-29.6653-22.1309,2.5192,1.8057,4.862,3.8379,7.0015,6.0698,9.5648,3.5215,16.3965,9.5513,18.8738,17.2559Z" style="fill:#2bffcc; stroke-width:0px;"/><path d="m5.0362,67.33l-3.7898,1.1948c3.6694,11.4336,14.9012,19.1738,29.6653,22.1309-2.5193-1.8057-4.8624-3.8384-7.002-6.0703-9.5649-3.5215-16.3965-9.5518-18.8735-17.2554Z" style="fill:#6a67ed; stroke-width:0px;"/><path d="m5.007,67.2485c-2.4731-7.8027-.4626-16.6548,5.6358-25.2427.4949-3.0786,1.2687-6.0635,2.2986-8.9272C2.3811,43.999-2.4491,56.8798,1.2144,68.4375c.0095.0298.0225.0576.032.0874l3.7898-1.1948c-.0089-.0278-.0204-.0542-.0291-.0815Z" style="fill:#2bffcc; stroke-width:0px;"/><path d="m106.9624,61.1142c-8.3622,10.0293-21.2184,18.1406-36.2001,22.8394-8.6545,2.7144-17.3318,4.0908-25.7908,4.0908-7.8465,0-15.0009-1.2275-21.062-3.459,2.1396,2.2319,4.4827,4.2646,7.002,6.0703,4.4087.8828,9.1285,1.3442,14.0599,1.3442,8.5567,0,17.7404-1.3735,26.9866-4.2734,14.4568-4.5342,26.623-12.0386,35.1003-20.8052,1.03-2.8633,1.8039-5.8486,2.2988-8.9272-.7417,1.0444-1.5324,2.0859-2.3948,3.1201Z" style="fill:#2bffcc; stroke-width:0px;"/><path d="m13.0375,38.8857c8.3623-10.0293,21.2185-18.1401,36.2003-22.8389,8.6538-2.7144,17.3312-4.0908,25.791-4.0913v-.0039l.0009.0015v.0024h.001c7.8453,0,14.9987,1.2275,21.0591,3.4585-2.1395-2.2319-4.4824-4.2642-7.0015-6.0698-4.4083-.8828-9.1276-1.3442-14.0585-1.3442v.001-.001h-.0011c-8.5567.0005-17.7405,1.374-26.9866,4.2739-14.457,4.5342-26.6232,12.0386-35.1005,20.8047-1.0299,2.8638-1.8037,5.8486-2.2986,8.9272.7417-1.0444,1.5323-2.0859,2.3947-3.1201Z" style="fill:#6a67ed; opacity:.5; stroke-width:0px;"/></g></g></svg>